<?xml version="1.0" encoding="utf-8"?>
<!-- Generator: Adobe Illustrator 23.1.0, SVG Export Plug-In . SVG Version: 6.00 Build 0)  -->
<svg version="1.1" id="Layer_2" xmlns="http://www.w3.org/2000/svg" xmlns:xlink="http://www.w3.org/1999/xlink" x="0px" y="0px"
	 viewBox="0 0 72 46.4" style="enable-background:new 0 0 72 46.4;" xml:space="preserve">
<style type="text/css">
	.st0{fill:#BEB6C0;}
	.st1{fill:#616064;}
	.st2{fill:#F8E290;}
	.st3{fill:#C3B788;}
	.st4{fill:#B9AF7E;}
	.st5{fill:#B8937E;}
	.st6{fill:#4F1A15;}
	.st7{fill:#E8B966;}
	.st8{fill:#AC8B53;}
	.st9{fill:#E0CEAF;}
	.st10{fill:#00AD9C;}
	.st11{fill:#36879C;}
	.st12{fill:#606161;}
	.st13{fill:#F3EDCD;}
	.st14{fill:#D0B787;}
	.st15{fill:#FFEBD0;}
	.st16{fill:#2E4D47;}
	.st17{fill:#B1A18C;}
	.st18{fill:#265660;}
	.st19{fill:#3F555D;}
	.st20{fill:#C4A287;}
	.st21{fill:#F9C978;}
</style>
<g>
	<g>
		<path class="st16" d="M58.49,11.95c-2.45,1.81-1.85,10.05-1.88,12.23c-0.03,2.18,0.03,3.69-1.7,2.73c-1.73-0.97-2.97-5.6-4-7.51
			c-1.03-1.91-2.63-3.79-4.21-0.51c-1.57,3.27-2.45,12.98-2.77,14.7c-0.32,1.73-0.85,1.73-3.32-3.18c-2.5-4.96-3.79-12.46-4.19-15
			c-0.41-2.54-0.26-6.36-2.65-7.54c-1.37-0.68-3.33-0.62-5.41,1.89c-2.71,3.18-2.98,3.81-4.78,6.46c-2.6,3.85-3.91,5.89-3.91,5.89
			c-4.71,0.22-8.04,2.76-9.64,5.2c-1.22,1.86-1.28,3.65-0.61,4.45c1.23,1.46,3.88,0.33,7.4-3.71c1.07-1.23,1.97-2.25,3.1-3.93
			c0,0,6.28-1.33,11.99,2.77c0,0-2.46-4.24-10.6-4.8c1.94-2.74,4.22-6.13,5.92-7.97c2.57-2.79,4.05-3.49,5.42-3
			c1.93,0.69,2.18,3.56,4.24,13.48c2.08,9.99,4.66,14.47,6.51,14.32c1.85-0.15,2.06-6.09,2.63-12.51c0.58-6.42,1.94-8.06,2.51-8.18
			s1.42,0.79,3.06,4.97c1.64,4.18,3.72,6.12,5.72,4.91c2-1.21,0.82-9.15,0.73-10.69c-0.09-1.54-0.31-4.71,1.88-5.09
			c1.53-0.26,3.06,0.97,3.06,0.97S60.7,10.32,58.49,11.95z M10.44,30.39c0-4.63,7.96-6.15,7.96-6.15c-0.49,0.81-0.92,1.46-2.15,2.95
			c-0.83,1-1.59,1.95-2.55,2.85C11.79,31.82,10.44,32.86,10.44,30.39z"/>
	</g>
</g>
</svg>
